<svg xmlns="http://www.w3.org/2000/svg" version="1.1" xmlns:xlink="http://www.w3.org/1999/xlink" xmlns:svgjs="http://svgjs.dev/svgjs" width="1000" height="623" viewBox="0 0 1000 623"><g transform="matrix(1,0,0,1,-0.6060606060606233,0.2522267206477409)"><svg viewBox="0 0 396 247" data-background-color="#ffffff" preserveAspectRatio="xMidYMid meet" height="623" width="1000" xmlns="http://www.w3.org/2000/svg" xmlns:xlink="http://www.w3.org/1999/xlink"><g id="tight-bounds" transform="matrix(1,0,0,1,0.2400000000000091,-0.09999999999999432)"><svg viewBox="0 0 395.52 247.2" height="247.2" width="395.52"><g><svg></svg></g><g><svg viewBox="0 0 395.52 247.2" height="247.2" width="395.52"><g transform="matrix(1,0,0,1,150.59658296703296,47.215199999999996)"><svg viewBox="0 0 94.32683406593407 152.7696" height="152.7696" width="94.32683406593407"><g><svg viewBox="0 0 94.32683406593407 152.7696" height="152.7696" width="94.32683406593407"><g><svg viewBox="0 0 94.32683406593407 152.7696" height="152.7696" width="94.32683406593407"><g><svg viewBox="0 0 94.32683406593407 152.7696" height="152.7696" width="94.32683406593407"><g id="textblocktransform"><svg viewBox="0 0 94.32683406593407 152.7696" height="152.7696" width="94.32683406593407" id="textblock"><g><svg viewBox="0 0 94.32683406593407 152.7696" height="152.7696" width="94.32683406593407"><g transform="matrix(1,0,0,1,0,0)"><svg width="94.32683406593407" viewBox="3.8299999237060547 -35.54999923706055 21.950000762939453 35.54999923706055" height="152.7696" data-palette-color="#ee3e38"><path d="M15.48-13.92L8.3-13.92 8.3 0 3.83 0 3.83-35.55 15.16-35.55Q20.12-35.55 22.95-32.58 25.78-29.61 25.78-24.68L25.78-24.68Q25.78-19.56 23.08-16.78 20.39-14.01 15.48-13.92L15.48-13.92ZM8.3-31.69L8.3-17.75 15.16-17.75Q18.14-17.75 19.73-19.53 21.31-21.31 21.31-24.63L21.31-24.63Q21.31-27.83 19.68-29.76 18.04-31.69 15.19-31.69L15.19-31.69 8.3-31.69Z" opacity="1" transform="matrix(1,0,0,1,0,0)" fill="#ee3e38" class="wordmark-text-0" data-fill-palette-color="primary" id="text-0"></path></svg></g></svg></g></svg></g></svg></g></svg></g></svg></g></svg></g><path d="M62.622 41.215L62.622 0 309.822 0 309.822 247.2 62.622 247.2 62.622 205.985 76.399 205.985 76.399 233.423 296.045 233.423 296.045 13.777 76.399 13.777 76.399 41.215Z" fill="#ee3e38" stroke="transparent" data-fill-palette-color="primary"></path></svg></g><defs></defs></svg><rect width="395.52" height="247.2" fill="none" stroke="none" visibility="hidden"></rect></g></svg></g></svg>